<svg xmlns="http://www.w3.org/2000/svg" width="403" height="225.372" viewBox="0 0 403 225.372">
  <g id="Group_7275" data-name="Group 7275" transform="translate(-1491.015 -484.04)">
    <g id="Group_7266" data-name="Group 7266" transform="translate(1491.015 577.445)">
      <g id="Group_7261" data-name="Group 7261" transform="translate(10.905 52.034)">
        <path id="Path_5083" data-name="Path 5083" d="M1587.975,1126.8s9.118-10.637.562-17.394c0,0-6.249-3.783-11.345-3.476,0,0,7.22,12.108,4.885,13.312s-7.073-14.072-7.073-14.072-14.221-1.379-18.8.821c0,0,12.158,9.949,9.6,10.541s-15.692-9.173-15.692-9.173-13.236,2.253-12.531,10.327,5.266,10.567,7.271,10.353,13.73-4.691,13.986-3.048-6.8,7.01-11.746,7.261c0,0,9.332,10.291,15.534,7.321s6.732-7.679,10.6-9.444,7.166-1.761,5.57.04-8.593,3.551-10.8,7.462-4.194,6.548,2.222,5.583,16.847-5.661,17.3-11.037Z" transform="translate(-1537.555 -1104.739)" fill="#d5d6da"/>
        <g id="Group_7260" data-name="Group 7260" transform="translate(6.531 13.098)">
          <path id="Path_5084" data-name="Path 5084" d="M1565.427,1160.7s35.951-1.385,43.89,8.9a26,26,0,0,0,7.159,10.047l.842,2.3s-6.23-6.569-8.459-6.966C1608.859,1174.973,1612.345,1162.236,1565.427,1160.7Z" transform="translate(-1565.427 -1160.639)" fill="#d5d6da"/>
          <path id="Path_5085" data-name="Path 5085" d="M1776.659,1238.793a22.574,22.574,0,0,1,8.252,15.9l-1.4.125s-2.465-10.543-6.919-14.667S1776.659,1238.793,1776.659,1238.793Z" transform="translate(-1725.61 -1219.787)" fill="#599dad"/>
        </g>
      </g>
      <g id="Group_7263" data-name="Group 7263" transform="translate(83.67 23.153)">
        <path id="Path_5086" data-name="Path 5086" d="M1857.634,1019.041s-14.5-8.123-7.735-19.146c0,0,5.415-6.769,11.216-8.509,0,0-3.094,16.438,0,16.825s2.128-18.566,2.128-18.566,15.277-7.349,21.273-6.769c0,0-9.476,16.052-6.382,15.665s13.73-16.631,13.73-16.631,15.665-2.9,18.179,6.382-1.547,13.924-3.868,14.5-17.212.387-16.825,2.321,10.443,5.028,16.052,3.287c0,0-6.188,15.278-14.311,14.5s-10.637-5.8-15.665-6.188-8.7.967-6.188,2.321,11.023.443,15.085,3.9,7.349,5.58-.193,7.127-21.08.58-23.787-5.221Z" transform="translate(-1848.098 -981.481)" fill="#6bb7bf"/>
        <g id="Group_7262" data-name="Group 7262" transform="translate(1.875 9.712)">
          <path id="Path_5087" data-name="Path 5087" d="M1921.406,1022.929s-40.612,13.15-45.254,27.848a30.85,30.85,0,0,1-3.868,14.118v2.9s4.255-9.863,6.575-11.217C1878.86,1056.579,1869.771,1043.815,1921.406,1022.929Z" transform="translate(-1868.492 -1022.929)" fill="#6bb7bf"/>
          <path id="Path_5088" data-name="Path 5088" d="M1859.892,1196.129s-6.263,9.511-2.693,21.088l1.611-.433s-1.564-12.751,1.713-19.165S1859.892,1196.129,1859.892,1196.129Z" transform="translate(-1856.099 -1154.163)" fill="#6bb7bf"/>
        </g>
      </g>
      <g id="Group_7265" data-name="Group 7265" transform="translate(0 0)">
        <path id="Path_5089" data-name="Path 5089" d="M1561.145,932.181s19.12-10.707,10.2-25.238c0,0-7.138-8.923-14.786-11.217,0,0,4.079,21.669,0,22.178s-2.8-24.473-2.8-24.473-20.139-9.687-28.042-8.922c0,0,12.492,21.159,8.412,20.649s-18.1-21.924-18.1-21.924-20.649-3.824-23.963,8.413,2.039,18.354,5.1,19.119,22.688.51,22.178,3.059-13.766,6.628-21.158,4.334c0,0,8.157,20.139,18.865,19.119s14.02-7.648,20.649-8.158,11.472,1.275,8.158,3.059-14.531.585-19.884,5.136-9.687,7.355.255,9.395,27.787.765,31.356-6.883Z" transform="translate(-1491.015 -882.67)" fill="#eaeaea"/>
        <g id="Group_7264" data-name="Group 7264" transform="translate(10.478 12.802)">
          <path id="Path_5090" data-name="Path 5090" d="M1535.731,937.306s53.534,17.335,59.652,36.709a40.673,40.673,0,0,0,5.1,18.609v3.824s-5.608-13-8.667-14.786C1591.814,981.663,1603.8,964.838,1535.731,937.306Z" transform="translate(-1535.731 -937.306)" fill="#d5d6da"/>
          <path id="Path_5091" data-name="Path 5091" d="M1803.714,1165.615s8.255,12.537,3.549,27.8l-2.124-.57s2.062-16.809-2.258-25.263S1803.714,1165.615,1803.714,1165.615Z" transform="translate(-1738.963 -1110.297)" fill="#6bb7bf"/>
        </g>
      </g>
      <path id="Path_5092" data-name="Path 5092" d="M1670.68,1310.881a37.452,37.452,0,0,1-37.452-37.452h74.9A37.452,37.452,0,0,1,1670.68,1310.881Z" transform="translate(-1599.905 -1181.868)"/>
      <path id="Path_5093" data-name="Path 5093" d="M1753.732,1310.593a37.478,37.478,0,0,0,42.1-37.166h-9.3A37.458,37.458,0,0,1,1753.732,1310.593Z" transform="translate(-1692.173 -1181.867)" fill="#ffebdc"/>
      <path id="Path_5094" data-name="Path 5094" d="M1631.021,1426.3h75.938a4.62,4.62,0,0,0-4.621-4.621h-66.7a4.62,4.62,0,0,0-4.62,4.621Z" transform="translate(-1598.215 -1295.379)"/>
      <rect id="Rectangle_17385" data-name="Rectangle 17385" width="76.987" height="1.149" transform="translate(109.458 92.709) rotate(180)" fill="#00a3fe"/>
    </g>
    <g id="Group_7268" data-name="Group 7268" transform="translate(1763.371 588.914)">
      <path id="Path_5095" data-name="Path 5095" d="M2800.742,965s-11.868-22.394,5.914-30.922c0,0,12.532-4.2,21.4-1.63,0,0-17.551,18.5-13.906,21.555s18.071-22.026,18.071-22.026,25.646,3.213,32.848,8.911c0,0-25.407,12.732-21.124,14.794s31.337-9.959,31.337-9.959,22.467,9.232,18.014,23.2-13.49,16.56-16.943,15.385-22.37-13.73-23.474-10.933,9.223,15.073,17.847,17.479c0,0-20.556,14.458-30.322,6.753s-8.831-16.224-14.954-20.875-11.948-5.954-9.846-2.142,13.756,9.679,16.1,17.459,4.8,13.223-6.139,8.971-27.484-16.68-26.157-26.35Z" transform="translate(-2763.239 -931.619)" fill="#d5d6da"/>
      <g id="Group_7267" data-name="Group 7267" transform="translate(0 27.139)">
        <path id="Path_5096" data-name="Path 5096" d="M2832.252,1055.412s-62.9-16.72-80.992-1.727a47.039,47.039,0,0,1-16.624,14.889l-2.4,3.717s13.6-9.119,17.7-8.935C2749.933,1063.357,2748.838,1039.492,2832.252,1055.412Z" transform="translate(-2713.757 -1047.442)" fill="#d5d6da"/>
        <path id="Path_5097" data-name="Path 5097" d="M2674.243,1134.833s-15.885,7.009-20.88,24.792l2.423.777s8.535-17.629,18.034-23.137S2674.243,1134.833,2674.243,1134.833Z" transform="translate(-2653.363 -1113.7)" fill="#599dad"/>
      </g>
    </g>
    <g id="Group_7270" data-name="Group 7270" transform="translate(1707.772 484.04)">
      <path id="Path_5098" data-name="Path 5098" d="M2439.761,576.4s-35.148-18.33-19.8-45.085c0,0,12.426-16.518,26.131-21.078,0,0-6.208,39.4,1.194,40.1s3.752-44.4,3.752-44.4,35.894-18.6,50.225-17.643c0,0-21.448,38.932-14.1,37.79s31.547-40.617,31.547-40.617,37.131-8.026,43.782,13.921-2.7,33.3-8.189,34.846-41,2.144-39.938,6.726,25.248,11.243,38.493,6.7c0,0-13.666,36.854-33.081,35.587S2494.016,570.175,2482,569.61s-20.674,2.922-14.585,5.971,26.305.275,36.231,8.216,17.912,12.778.045,17-50.2,2.879-57.068-10.757Z" transform="translate(-2416.083 -484.04)" fill="#eaeaea"/>
      <g id="Group_7269" data-name="Group 7269" transform="translate(7.371 22.776)">
        <path id="Path_5099" data-name="Path 5099" d="M2596.171,581.24s-95.866,34.228-105.887,69.589c0,0,.928,15.659-8.216,33.925l.205,6.914s9.441-23.81,14.876-27.2C2497.15,664.466,2474.579,634.688,2596.171,581.24Z" transform="translate(-2473.979 -581.24)" fill="#d5d6da"/>
        <path id="Path_5100" data-name="Path 5100" d="M2455.633,1008.524s-14.253,23.113-4.92,50.455l3.81-1.146s-4.633-30.283,2.721-45.8S2455.633,1008.524,2455.633,1008.524Z" transform="translate(-2447.543 -905.01)" fill="#6bb7bf"/>
      </g>
    </g>
    <path id="Path_5101" data-name="Path 5101" d="M1704.434,879.618H1905.02L1946.987,707.7H1746.4Z" transform="translate(-163.412 -171.255)" fill="#364154"/>
    <path id="Path_5102" data-name="Path 5102" d="M2126.412,879.618H1925.826L1883.859,707.7h200.586Z" transform="translate(-300.795 -171.255)" fill="#b8c1c9"/>
    <path id="Path_5103" data-name="Path 5103" d="M2157.587,901.714H1979.739l-37.209-152.428h177.848Z" transform="translate(-345.718 -203.095)" fill="#eaeaea"/>
    <path id="Path_5104" data-name="Path 5104" d="M2010.956,877.5H1994.43l-3.458-14.164H2007.5Z" transform="translate(-382.81 -290.422)"/>
    <path id="Path_5105" data-name="Path 5105" d="M2117.687,877.5H2101.16l-3.458-14.164h16.527Z" transform="translate(-464.531 -290.422)"/>
    <path id="Path_5106" data-name="Path 5106" d="M2225.644,877.5h-16.526l-3.458-14.164h16.527Z" transform="translate(-547.193 -290.422)"/>
    <path id="Path_5107" data-name="Path 5107" d="M2333.6,877.5h-16.527l-3.457-14.164h16.526Z" transform="translate(-629.854 -290.422)"/>
    <path id="Path_5108" data-name="Path 5108" d="M2441.558,877.5h-16.527l-3.458-14.164H2438.1Z" transform="translate(-712.515 -290.422)"/>
    <path id="Path_5109" data-name="Path 5109" d="M2549.515,877.5h-16.526l-3.458-14.164h16.526Z" transform="translate(-795.176 -290.422)"/>
    <path id="Path_5110" data-name="Path 5110" d="M2657.473,877.5h-16.527l-3.458-14.164h16.527Z" transform="translate(-877.837 -290.422)"/>
    <path id="Path_5111" data-name="Path 5111" d="M2040.371,984.466h-16.527l-3.458-14.165h16.527Z" transform="translate(-405.332 -372.323)"/>
    <path id="Path_5112" data-name="Path 5112" d="M2147.1,984.466h-16.527l-3.458-14.165h16.527Z" transform="translate(-487.054 -372.323)"/>
    <path id="Path_5113" data-name="Path 5113" d="M2255.059,984.466h-16.527l-3.458-14.165H2251.6Z" transform="translate(-569.716 -372.323)"/>
    <path id="Path_5114" data-name="Path 5114" d="M2363.017,984.466H2346.49l-3.458-14.165h16.527Z" transform="translate(-652.377 -372.323)"/>
    <path id="Path_5115" data-name="Path 5115" d="M2470.974,984.466h-16.527L2450.99,970.3h16.527Z" transform="translate(-735.038 -372.323)"/>
    <path id="Path_5116" data-name="Path 5116" d="M2578.931,984.466H2562.4l-3.458-14.165h16.527Z" transform="translate(-817.699 -372.323)"/>
    <path id="Path_5117" data-name="Path 5117" d="M2686.888,984.466h-16.527L2666.9,970.3h16.527Z" transform="translate(-900.36 -372.323)"/>
    <path id="Path_5118" data-name="Path 5118" d="M2067.113,1090.094h-16.527l-3.458-14.164h16.527Z" transform="translate(-425.808 -453.201)"/>
    <path id="Path_5119" data-name="Path 5119" d="M2173.844,1090.094h-16.527l-3.458-14.164h16.526Z" transform="translate(-507.53 -453.201)"/>
    <path id="Path_5120" data-name="Path 5120" d="M2281.8,1090.094h-16.527l-3.458-14.164h16.527Z" transform="translate(-590.191 -453.201)"/>
    <path id="Path_5121" data-name="Path 5121" d="M2389.758,1090.094h-16.527l-3.458-14.164H2386.3Z" transform="translate(-672.852 -453.201)"/>
    <path id="Path_5122" data-name="Path 5122" d="M2497.715,1090.094h-16.527l-3.458-14.164h16.527Z" transform="translate(-755.513 -453.201)"/>
    <path id="Path_5123" data-name="Path 5123" d="M2605.672,1090.094h-16.527l-3.458-14.164h16.527Z" transform="translate(-838.174 -453.201)"/>
    <path id="Path_5124" data-name="Path 5124" d="M2713.629,1090.094H2697.1l-3.458-14.164h16.526Z" transform="translate(-920.836 -453.201)"/>
    <path id="Path_5125" data-name="Path 5125" d="M2093.854,1193.048h-16.527l-3.458-14.165H2090.4Z" transform="translate(-446.283 -532.031)"/>
    <path id="Path_5126" data-name="Path 5126" d="M2200.584,1193.048h-16.527l-3.458-14.165h16.526Z" transform="translate(-528.005 -532.031)"/>
    <path id="Path_5127" data-name="Path 5127" d="M2308.542,1193.048h-16.527l-3.458-14.165h16.527Z" transform="translate(-610.666 -532.031)"/>
    <path id="Path_5128" data-name="Path 5128" d="M2416.5,1193.048h-16.527l-3.458-14.165h16.527Z" transform="translate(-693.327 -532.031)"/>
    <path id="Path_5129" data-name="Path 5129" d="M2524.456,1193.048H2507.93l-3.458-14.165H2521Z" transform="translate(-775.989 -532.031)"/>
    <path id="Path_5130" data-name="Path 5130" d="M2632.413,1193.048h-16.527l-3.458-14.165h16.527Z" transform="translate(-858.65 -532.031)"/>
    <path id="Path_5131" data-name="Path 5131" d="M2740.37,1193.048h-16.527l-3.458-14.165h16.526Z" transform="translate(-941.311 -532.031)"/>
    <path id="Path_5132" data-name="Path 5132" d="M2119.258,1294.664h-16.527l-3.458-14.164H2115.8Z" transform="translate(-465.735 -609.837)"/>
    <path id="Path_5133" data-name="Path 5133" d="M2225.989,1294.664h-16.526L2206,1280.5h16.526Z" transform="translate(-547.457 -609.837)"/>
    <path id="Path_5134" data-name="Path 5134" d="M2333.946,1294.664h-16.527l-3.457-14.164h16.527Z" transform="translate(-630.118 -609.837)"/>
    <path id="Path_5135" data-name="Path 5135" d="M1704.434,1414.685l42.6-8.174,41.405,8.174Z" transform="translate(-163.412 -706.322)" fill="#131f2d"/>
    <path id="Path_5136" data-name="Path 5136" d="M1974.577,631.006a18.582,18.582,0,0,0-18.55,18.033h7.426a11.138,11.138,0,1,1,11.125,11.67,3.713,3.713,0,0,0,0,7.425,18.564,18.564,0,1,0,0-37.128Z" transform="translate(-356.052 -112.53)" fill="#131f2d"/>
    <path id="Path_5137" data-name="Path 5137" d="M2175.283,631.006a18.581,18.581,0,0,0-18.55,18.033h7.426a11.138,11.138,0,1,1,11.125,11.67,3.713,3.713,0,1,0,0,7.425,18.564,18.564,0,0,0,0-37.128Z" transform="translate(-509.73 -112.53)" fill="#131f2d"/>
    <path id="Path_5138" data-name="Path 5138" d="M2375.988,631.006a18.581,18.581,0,0,0-18.55,18.033h7.425a11.138,11.138,0,1,1,11.125,11.67,3.713,3.713,0,0,0,0,7.425,18.564,18.564,0,1,0,0-37.128Z" transform="translate(-663.407 -112.53)" fill="#131f2d"/>
    <path id="Path_5139" data-name="Path 5139" d="M2576.693,631.006a18.582,18.582,0,0,0-18.55,18.033h7.425a11.138,11.138,0,1,1,11.125,11.67,3.713,3.713,0,1,0,0,7.425,18.564,18.564,0,1,0,0-37.128Z" transform="translate(-817.084 -112.53)" fill="#131f2d"/>
    <path id="Path_5140" data-name="Path 5140" d="M1746.476,707.7l.562,163.742-42.6,8.174Z" transform="translate(-163.412 -171.255)" fill="#657285"/>
    <g id="Group_7271" data-name="Group 7271" transform="translate(1694.72 566.419)">
      <path id="Path_5141" data-name="Path 5141" d="M2381.019,865.458a42,42,0,0,0,18.1,1.233c5.221-.875,8.734-3.761,9.661-6.957.841-2.9-.4-6.143-3.581-9.391h0c3.051,3.112,4.125,6.694,3.362,9.327-.847,2.922-4.215,5.08-9.237,5.922a41.691,41.691,0,0,1-17.9-1.539c-6.394-1.855-12.056-4.8-15.944-8.282-3.792-3.4-5.481-7.025-4.633-9.947.9-3.094,4.675-6.167,9.859-8.02,5.894-2.107,12.279-1.67,18.312.08,11.327,3.287,15.262,7.149,18.395,11.468h0c-3.146-4.337-6.713-9.253-18.08-12.551a30.426,30.426,0,0,0-18.576.556c-5.293,1.892-9.174,5.112-10.129,8.4-.927,3.2.734,6.9,4.675,10.435C2369.207,859.694,2374.609,863.6,2381.019,865.458Z" transform="translate(-2360.379 -835.614)" fill="#131f2d"/>
    </g>
    <g id="Group_7274" data-name="Group 7274" transform="translate(1747.513 535.571)">
      <path id="Path_5142" data-name="Path 5142" d="M2915.691,1052.487s-.516,5.021-1.083,5.971a21.4,21.4,0,0,1-4.007,4.58c-1.029.6.627-4,.418-4.893s-.846,1.632-1.3,1.691-.336-2.214-.352-3.041,2.2-2.869,2.987-4.631S2915.691,1052.487,2915.691,1052.487Z" transform="translate(-2833.522 -970.034)" fill="#ff7955"/>
      <path id="Path_5143" data-name="Path 5143" d="M2645.576,829.8l-1.154-2.177s.573-3.88-4.289-6.335a2.373,2.373,0,0,0-2.78.726c-.924,1.335,1.761,1.094,1.616,3.377a4.2,4.2,0,0,0,2.449,4.367l1.246,1.445Z" transform="translate(-2625.098 -793.657)" fill="#ff7955"/>
      <path id="Path_5144" data-name="Path 5144" d="M2703.763,833.533s-4.175,20.492-27.151,27.187c-7.172,2.091-23.465-21.522-23.465-21.522s.573-2.177,4.161-1.677c0,0,15.865,10.5,17.862,11.644,1.773,1.012,13.428-13.014,18.741-15.277A13.562,13.562,0,0,1,2703.763,833.533Z" transform="translate(-2637.34 -802.597)" fill="#4d8d90"/>
      <g id="Group_7272" data-name="Group 7272" transform="translate(0 26.906)">
        <rect id="Rectangle_17386" data-name="Rectangle 17386" width="4.291" height="21.586" transform="translate(4.635 4.242) rotate(-81.268)" fill="#131f2d"/>
        <path id="Path_5145" data-name="Path 5145" d="M2585.688,820.148l4.635,2.883.651-4.242Z" transform="translate(-2585.688 -818.789)" fill="#ff7955"/>
        <path id="Path_5146" data-name="Path 5146" d="M2699.44,834.563l-.206,1.341a1.512,1.512,0,0,1-1.723,1.264l-.987-.151.652-4.242,1.073.165A1.424,1.424,0,0,1,2699.44,834.563Z" transform="translate(-2670.553 -829.498)" fill="#ff7955"/>
      </g>
      <g id="Group_7273" data-name="Group 7273" transform="translate(42.131 77.316)">
        <path id="Path_5147" data-name="Path 5147" d="M2952.487,1381.728s2.851,2.6,2.294,4.449-3.129,3.08-3.477,5.339-1.738,3.491-2.989,3.491h-5.966s-.921-1.589,1.3-2.069,3.063-3.134,2.924-5.6a43.473,43.473,0,0,1,.209-5.75l4.727-1.1Z" transform="translate(-2900.765 -1299.29)" fill="#131f2d"/>
        <path id="Path_5148" data-name="Path 5148" d="M2782.249,1406.979s.511,5.92-.74,6.536l-16.014-.033s0-1.848,2.573-2.259,7.091-1.917,7.856-5.271S2782.249,1406.979,2782.249,1406.979Z" transform="translate(-2765.494 -1317.814)" fill="#131f2d"/>
        <path id="Path_5149" data-name="Path 5149" d="M2779.294,1052.9s.845,10.376,1.838,22.85c1.349,16.944,2.972,37.756,3.132,41.7.278,6.846,1.391,17.8,1.391,17.8s2.641,2.6,7.925,1.505a176.761,176.761,0,0,0,6.054-32.175c.021-.271.041-.545.062-.818,1.252-16.839,3.2-52.3,3.2-52.3Z" transform="translate(-2776.061 -1047.351)" fill="#364154"/>
        <path id="Path_5150" data-name="Path 5150" d="M2779.294,1052.9s.845,10.376,1.838,22.85l18.5,28.828c.021-.271.041-.545.062-.818,1.252-16.839,3.2-52.3,3.2-52.3Z" transform="translate(-2776.061 -1047.351)" fill="#131f2d"/>
        <path id="Path_5151" data-name="Path 5151" d="M2795.756,1040.707s15.225,37.58,25.235,55.24,13.139,22.589,13.139,22.589,5.735-2.259,6.257-3.8c0,0-3.828-34.094-10.532-42.406-3.788-4.7-8.238-18.79-8.446-23.719s-1.355-14.683-1.355-14.683Z" transform="translate(-2788.665 -1033.93)" fill="#364154"/>
      </g>
      <path id="Path_5152" data-name="Path 5152" d="M2828.176,774.9s-10.3,4.97-16.239,3.126a14.019,14.019,0,0,1,4.02-3.216c-.206-1.192-.365-2.227-.457-3.1a28.671,28.671,0,0,1-.251-3.171l3.974-3.126,3.769-2.991A15.187,15.187,0,0,0,2828.176,774.9Z" transform="translate(-2758.923 -748.723)" fill="#ff7955"/>
      <path id="Path_5153" data-name="Path 5153" d="M2805.813,861.117c.023.63-1.324,1.349-1.918,1.619a42.067,42.067,0,0,1-13.18,3.734c-5.5.562-12.014-.675-14.252-.63a.929.929,0,0,1-.616-.247c-.16-.113-.274-6.747-.16-15.091,0-.337,0-.675.022-1.012v-.112c.046-3.261.159-6.68.32-10.1.32-7.512.914-14.754,1.918-18.757a20.334,20.334,0,0,1,6.441-10.121l2.056-1.8a9.876,9.876,0,0,0,6.4-.764c2.375-1.147,4.934-2.384,5.345-2.07,3.106,2.272,5.207,7.377,6.327,13.9a72.314,72.314,0,0,1,.937,12.369c0,1.619-.046,3.284-.138,4.926a155.279,155.279,0,0,0,.321,21.118C2805.722,859.385,2805.791,860.4,2805.813,861.117Z" transform="translate(-2731.132 -781.876)" fill="#649c9e"/>
      <path id="Path_5154" data-name="Path 5154" d="M2844.946,906.29c-36.073-.072-6.654-39.142-6.654-39.142l5.844-1.9a113.585,113.585,0,0,1,.677,13.215c0,1.73-.034,3.508-.1,5.262C2844.318,893.243,2844.714,901.508,2844.946,906.29Z" transform="translate(-2770.446 -827.458)" fill="#4d8d90"/>
      <path id="Path_5155" data-name="Path 5155" d="M2833.883,775.411s-2.6,4.745-7.56,6.072a28.7,28.7,0,0,1-.251-3.171l3.974-3.126Z" transform="translate(-2769.746 -758.497)" fill="#ef6343"/>
      <path id="Path_5156" data-name="Path 5156" d="M2812.071,735.632s9.827,1.608,10.75-4.433,2.812-9.9-3.423-11.184-7.81.842-8.615,2.785S2809.539,735.059,2812.071,735.632Z" transform="translate(-2757.559 -715.955)" fill="#ff7955"/>
      <path id="Path_5157" data-name="Path 5157" d="M2816.014,707.3c.089-.1.3-.185.753-.209a1.856,1.856,0,0,0-.855-.241,2.305,2.305,0,0,0-1.531-2.038,1.374,1.374,0,0,1,.665.991c-1.268-1.3-3.988-2.253-11.52-1.658-9.926.783-6.654,7.138-5.37,7.9s4.52-1.319,6.914-1.129,2.85,3.649,3.661,4.124.493-.365,1.592-.861,1.2,1.324.885,2.508,1.193,2.745,1.193,2.745l1.526-1.643c1.525-1.643,2.963-8.6,2.27-10.087Z" transform="translate(-2747.18 -703.962)" fill="#131f2d"/>
      <path id="Path_5158" data-name="Path 5158" d="M2856.456,805.719s6.217,2.944,9.2,7.471c4.624,7.021,9.984,32.609,10.083,34.979s-3.912,19.1-3.912,19.1-4.068-.268-5.118-2.321c0,0,.813-17.188.3-18.293s-16.961-23.056-15.112-27.74S2856.456,805.719,2856.456,805.719Z" transform="translate(-2789.407 -781.876)" fill="#649c9e"/>
      <path id="Path_5159" data-name="Path 5159" d="M2658.153,835.5s.338-1.336-.588-1.936-1.779-2.233-2.17-2.012c-.81.458.443,1.883.214,3.66C2655.529,835.837,2656.977,837.468,2658.153,835.5Z" transform="translate(-2638.851 -801.642)" fill="#ff7955"/>
    </g>
    <path id="Rectangle_17387" data-name="Rectangle 17387" d="M.589,0H384.348a.589.589,0,0,1,.589.589v0a.589.589,0,0,1-.589.589H.589A.589.589,0,0,1,0,.589v0A.589.589,0,0,1,.589,0Z" transform="translate(1891.788 709.412) rotate(180)" fill="#364154"/>
  </g>
</svg>
