<svg xmlns="http://www.w3.org/2000/svg" width="219.155" height="219.081" viewBox="0 0 219.155 219.081">
  <g id="Group" style="mix-blend-mode: normal;isolation: isolate">
    <path id="Vector" d="M118.39,129.856h5.91v12.295h-5.874c-.036-.073-.11-.11-.146-.183V130.26h-5.837v5.8h-5.69v5.946h-5.91v11.524h29.22v6.02h-5.579v29.619H112.3V177.387h-5.653V165.421H118.17v-5.762H100.733v11.855H94.786v5.616c1.578,0,3.047.036,4.515,0,.991-.037,1.468.257,1.4,1.321-.074,1.5,0,3.046,0,4.845h-5.91v5.762h11.783v5.983H94.859V200.8H100.7c0,1.652.073,3.083-.037,4.515-.11,1.321.4,1.725,1.689,1.615s2.569-.037,4.111-.037v-6.019h5.727V195h6.13v6.019H112.48a42.93,42.93,0,0,0,.073,4.919c.037.367.991.917,1.542.917,3.377.074,6.718.037,10.242.037v5.836h-5.8v5.909h-6.168V207.153h-5.616v5.505h-6.094v-5.505H89.169v5.285h5.47v6.24H77.018v-6.056h5.653V195.114H71.108V183.443h-5.8v5.8H59.471v5.835H53.6v5.689h5.763v17.875H47.431V206.9h5.8v-5.8H47.467V189.058H59.214v-5.689h-5.8V177.35h-6.02V159.7H35.867v5.615h5.727v6.056H17.806V159.659H6.243v11.708H.186V147.584h11.6v-5.763h6.02V135.8h5.947v-5.873h5.69v-5.652H23.9V112.238h5.763v5.726H41.447v-5.616H35.61v-5.8H29.59V88.9H6.353v5.4H17.88v6.057c1.652,0,3.083.073,4.515-.037,1.321-.074,1.725.44,1.652,1.688-.073,1.432-.037,2.9-.037,4.515a33.723,33.723,0,0,1-3.891-.037c-1.615-.147-2.276.294-2.2,2.092.147,3.157.037,6.313.037,9.726h-5.91v5.983c-1.468,0-2.79.073-4.111-.037s-1.909.294-1.762,1.725c.11,1.248.037,2.533.037,3.928H.149v-5.836h5.8v-5.689H.222V106.329H5.949v-5.762H.039V96.823c0-2.276.037-4.514-.037-6.79-.037-1.248.4-1.615,1.579-1.541,1.395.073,2.79.037,4.405.037V82.582H17.659V76.82H11.786c0-3.3-.11-6.423.037-9.506.073-1.835-.4-2.606-2.313-2.349a24.263,24.263,0,0,1-3.3.037v5.836H.149V47.127h11.82v5.836h5.8v-5.8H29.59v6.093c-3.157,0-6.314.073-9.471-.037-1.615-.073-2.423.294-2.166,2.092a30.108,30.108,0,0,1,.037,3.67h6.02c0,1.652.037,3.083,0,4.514-.037.991.294,1.468,1.358,1.395,1.322-.073,2.68,0,4.185,0V59.2H41.667v5.836H32.894c-3.157,0-3.157,0-3.157,3.23,0,2.386-.037,4.771.037,7.157.037,1.028-.33,1.5-1.358,1.358h-.184c-1.358.11-3.744-.073-3.891.44-.514,1.578-.184,3.413-.184,5.285H41.631c0-1.615.073-3.12-.037-4.625a1.573,1.573,0,0,0-1.065-1.028c-1.211-.147-2.46.037-3.671-.11-.477-.073-1.175-.661-1.211-1.064-.147-1.5-.073-3.046-.073-4.7H41.7V76.49H47.32v-11.6c1.689,0,3.194-.073,4.7.037,1.138.074,1.505-.367,1.432-1.5-.073-1.321-.037-2.679-.037-4.257h5.947c0-1.8.073-3.377-.073-4.918a1.627,1.627,0,0,0-1.175-.918c-1.505-.11-3.01-.037-4.7-.037V47.347H47.431v-12c1.432,0,2.827-.073,4.222.037,1.322.11,1.909-.294,1.762-1.725a39.9,39.9,0,0,1-.037-4.221h5.837V17.8H53.488V11.745h5.984v5.762h5.543V6.056H47.431V0H71.255c0,1.5.037,3.01,0,4.478-.037,1.028.33,1.358,1.358,1.431,4.3.184,4.3.22,4.3-4.111V.037H89.059c0,3.3.073,6.533-.037,9.763-.037,1.395.294,2.055,1.835,1.909,1.175-.11,2.423-.037,3.781-.037V5.946h5.947V.037h6.2V5.873h11.673V17.507h5.8V.073h5.91V29.546h-5.579V41.621h-5.911V59.166h5.764v5.983h-5.8v5.689h5.726V76.82h-12V71.2H100.916V82.656h23.531V88.9h-5.764v11.452h11.454V88.785H136.3V106.4h11.49v-5.726h-5.47V88.785h5.727V94.4h23.641v6.239H166v11.635h-6.314V100.824h-5.47v5.835c-1.725,0-3.23.037-4.735,0-1.028-.036-1.432.368-1.359,1.4.074,1.285,0,2.569,0,4.148h5.984c0,1.8.037,3.34,0,4.844-.037.955.33,1.322,1.285,1.285,1.395-.073,2.79,0,4.442,0v5.836h5.873v-5.836h5.984V106.586H183.4V100.75h-5.763V94.584h11.783V76.856h5.8V71.021H201.1V65.258H189.5V59.386c-1.8,0-3.414-.073-5.029.073-.331.037-.771.954-.808,1.468-.073,4.478-.037,8.919-.037,13.4v2.5h-6.167V59.533H171.8v5.652H159.981v5.762h11.674V88.785H159.688V71.2H154V65.038h5.47V59.423h-11.6V53.513H142.4v11.6H136.3v5.872h-6.057V65h5.727V47.421H130.21V35.529h5.764V11.855h6.277V29.436h11.71v5.909h5.764v5.983h5.836V35.565h6.2v13.47c0,4.257,0,4.257,4.222,4.221a11.574,11.574,0,0,0,1.358-.11V47.274h6.2c0,1.468.073,2.9-.037,4.331-.073,1.321.4,1.688,1.689,1.652,3.3-.073,6.571-.037,10.132-.037v5.836H207.08V53.22h5.763V47.274h6.094V53.33H213.21v5.762h5.69v5.983H207.41v5.762h11.527v6.056h-5.764v5.689h5.764V100.64h-9.4c-2.019,0-4.038.11-6.057-.037-1.835-.146-2.386.551-2.166,2.276.11,1.138.037,2.312.037,3.6h-6.131V94.768h-5.616v11.818H183.7v5.542h17.547v6.2h-5.727v5.689h11.6v-5.726h5.727V106.623h6.13v17.691h-5.69v5.652h5.727v17.948h-5.763v5.836h5.763v11.892h-5.763V177.2h5.726v12.185h-5.69v5.579h5.69v23.857h-6.057v-5.762H195.369v5.8h-11.82v-6.129h11.563V207.19H183.475v-5.836H177.6c0,1.578.073,3.12-.037,4.624-.036.441-.7,1.175-1.1,1.175-3.487.11-6.938.037-10.682.037v-5.836h-5.874v11.525H154v-5.653c-1.836,0-3.488-.073-5.1.074-.33.036-.771.954-.771,1.5-.073,3.3-.036,6.57-.036,10.02H136.231V212.8h5.91c0-1.725.073-3.23-.074-4.735-.036-.33-.917-.807-1.431-.807-2.754-.073-5.507-.037-8.26-.037h-2.2V201.28H124.52v-6.239h5.617V177.387h17.914v5.8h5.727v-5.763h5.983v11.635h5.727V165.715h-5.837v-5.909H148.2v5.652h5.69v6.056H142.251V159.475h5.506V147.84h6.2v5.8h5.47V142.188h-5.507v-5.909h-5.836v5.8h-5.727v11.708H136.12V130.223h-5.836v-5.909h11.967v5.542h17.18v-5.432h-5.58c0-1.762-.037-3.267,0-4.808.037-.955-.367-1.322-1.285-1.285-1.5.037-3.01,0-4.772,0v-5.983c-3.671,0-7.158-.036-10.609.037-.33,0-.881.734-.918,1.175-.11,1.505-.036,3.046-.036,4.661h-6.058v-5.8h-5.8v-5.909H118.39v-5.836h-5.91c0,1.541.036,3.01,0,4.441-.037,1.1.477,1.321,1.431,1.321,1.432-.073,2.937,0,4.479.037Zm-88.947,6.35h-5.47v5.578c1.946.111,3.744.221,5.543.331v5.395h5.727v-5.322c-2.019-.037-3.928-.037-5.8-.037Zm0,11.818H23.937v5.505c1.909.111,3.744.221,5.543.294v5.432h5.727V153.9H29.443ZM70.925,53.183v-13.4c0-4.551,0-4.514-4.479-4.294-1.064.037-1.358.44-1.322,1.431.073,1.5,0,3.01,0,4.7H59.471V53.146h5.58v6.13h-5.8v5.8H53.377v6.974c0,4.588,0,4.588,4.589,4.588h7.048V88.858h-5.58v5.4H71V88.748h5.947v5.469h5.837V76.636h5.837V70.984h-5.91V65h-11.6V59.019h5.58c-.037-1.982-.037-3.707-.037-5.836ZM94.749,11.892v5.726h5.763v6.166c-3.34,0-6.571.073-9.8-.037-1.432-.037-1.872.33-1.872,1.835.074,6.607.037,13.213.037,19.82,0,.514.073,1.064.11,1.578h5.47V35.492h6.2V47.127h5.8v6.24H94.712V64.781h5.727V59.055H112V41.475h-5.433V35.345c1.616,0,3.084.037,4.516,0,.991-.037,1.284.367,1.248,1.321-.037,1.5,0,3.01,0,4.588h5.726V29.583h-5.8V23.6h5.8V17.764h-11.71c.074-2.165.074-3.964.074-5.872ZM88.582,130.039H82.6V118.294H76.651v-5.835h-5.47V124.13h5.58v5.983c-1.542,0-2.937-.074-4.295.037-.477.036-1.285.477-1.285.807-.147,1.615-.073,3.23-.073,4.992h5.653v12.038H65.235v5.763h11.49V159.7H71.071v5.946H65.235v5.689H82.708v-5.91h5.837v-5.8H82.782V141.9c2.019-.037,3.854-.037,5.8-.037ZM71.218,106.4H82.782c.037.77.073,1.358.11,1.945,0,2.826-.037,5.615.037,8.442,0,.44.477,1.247.771,1.284,1.615.11,3.267.074,5.029.074v-2.093c0-4.7-.037-9.432.037-14.13,0-.514.441-1.468.734-1.505,1.652-.147,3.341-.073,5.176-.073,0,1.725-.073,3.193.037,4.661.037.477.477,1.284.808,1.284,1.615.147,3.23.074,5.066.074v-6.019c3.524,0,6.791.036,10.1-.037.514,0,1.468-.441,1.5-.771.147-1.615.073-3.23.073-5.028H106.5V88.932h-5.8V94.4H94.419V88.9H88.986v5.652H82.855v5.983c-4,.037-7.746.037-11.637.037ZM47.063,94.511V82.949H41.557v5.836h-5.8V94.4h5.727v6.2H35.757v5.836h17.62v5.542h5.8v-5.689h5.653v-5.835h-5.69V94.511Zm47.759,35.528h5.911v5.726H106.5v-5.836c1.615,0,3.01-.036,4.4,0,.881.037,1.358-.257,1.358-1.248-.036-6.973,0-13.947-.036-20.884a1.532,1.532,0,0,0-.918-1.174c-1.5-.147-3.01-.074-4.736-.074v5.763c-4.038.036-7.819.036-11.747.036Zm76.686,35.272V159.4h5.8V153.64h11.784v-5.8H177.161v-5.615H165.782v5.469h5.689v6.276h-5.763c.037,3.854.037,7.487.037,11.341Zm.294,6.423v17.251h17.363V171.734Zm40.857-24.187v-5.506H195v-5.835h-5.4V147.62h11.527v6.166h-5.764v5.432h11.747V147.547Zm-17.29,29.876v11.709h5.91v11.634h5.837v-17.58h5.543v-5.763Zm-17.877-41.511v5.909h5.653V124.24h-5.837c0-1.688.074-3.156-.036-4.588-.037-.477-.624-1.211-1.028-1.247-1.432-.147-2.9-.074-4.516-.074v6.056h-5.836V130h5.836c-.036,1.982-.036,3.854-.036,5.909Zm-35.351,59.129c0,3.633-.037,7.047.036,10.46,0,.477.514,1.358.845,1.395,1.5.147,3.01.073,4.7.073v-6.092h11.636v-5.726c-1.468,0-2.863-.037-4.258,0-1.028.037-1.432-.33-1.4-1.358.037-1.432,0-2.863,0-4.294h-17.51c.037,1.835.037,3.523.037,5.542ZM71.218,183.222h5.727v5.8h5.837v-5.909h5.837V171.734H82.782v5.616H71.218Zm-6.2-47.494v-5.909h5.8v-5.542c-3.561,0-7.048-.037-10.5.073-.33,0-.918.845-.955,1.322-.147,1.431-.037,2.863-.037,4.478H47.467v5.578ZM82.6,29.619H71.108c0,1.542.037,2.936,0,4.331-.073,1.1.477,1.358,1.432,1.321,1.395-.037,2.79,0,4.368,0v5.909c2.019.037,3.818.037,5.69.037ZM206.969,88.6V82.912H195.406V94.254h5.543V88.6Zm-29.4,71.13v5.579h11.6v-5.579ZM75.55,23.527a1.618,1.618,0,0,0,1.138-1.138c.074-3.12.074-6.24,0-9.323,0-.44-.734-1.248-1.028-1.211-1.505.257-3.267-.954-4.552.661-.073.073-.037.22-.037.367V23.563C72.76,23.563,74.155,23.637,75.55,23.527ZM47.027,141.784v-5.542H35.684v5.542Zm-11.453,6.167c0,1.651-.074,3.156.037,4.661a1.465,1.465,0,0,0,.918.991c3.487.073,6.938.037,10.5.037.037-1.946.037-3.744.037-5.689ZM178.483,53.33c-.367.037-1.065.918-.991,1.248.293,1.468-1.175,3.6.771,4.368,1.4.551,3.193.11,4.919.11.036-1.982.036-3.744.036-5.8C181.53,53.256,179.988,53.183,178.483,53.33Zm-.037,59.055c-2.092.587-.624,2.569-.917,3.854-.147.661-.478,1.835.954,1.872,1.542.037,3.12,0,4.735,0-.036-1.982-.036-3.781-.036-5.8C181.53,112.312,179.878,111.981,178.446,112.385ZM12.85,100.6c-.367.037-.955.588-.955.955-.11,1.541-.037,3.12-.037,4.7h5.763c-.037-1.872-.037-3.634-.037-5.689C15.9,100.567,14.356,100.493,12.85,100.6Zm46.584,82.473h5.36v-5.653h-5.36Zm-.367-17.765v-5.579h-5.58v5.579Zm89.975-118c-.367.037-1.028.4-1.028.661-.11,1.652-.036,3.34-.036,5.138,1.762,0,3.23.073,4.7-.037a1.526,1.526,0,0,0,1.065-.991c.073-1.542,0-3.046,0-4.808C151.942,47.274,150.474,47.237,149.042,47.31ZM59.031,153.566v-5.579h-5.58v5.579ZM159.8,47.384V53.11c1.689,0,3.23.037,4.809-.037a1.16,1.16,0,0,0,.844-.844c.11-1.578.074-3.156.074-4.845ZM83,23.38h5.543V17.8H83ZM183.549,124.02h5.58v-5.579h-5.58ZM59.435,29.656v5.506h5.433V29.656Zm-.367,11.562V35.712c-5.58-.807-5.91-.55-5.653,4.808a1.9,1.9,0,0,0,.11.7ZM83,64.781h5.433c.991-5.212.661-5.652-4.332-5.505a4.031,4.031,0,0,0-1.1.073Zm29.551-.073h5.617V59.349h-5.617ZM76.908,52.155a1.164,1.164,0,0,0,.808.881c1.615.073,3.23.037,4.846.037V47.347c-1.835.037-3.634.037-5.69.037C76.871,49.035,76.835,50.614,76.908,52.155ZM59.471,118.037h5.36v-5.615h-5.36ZM202.638,70.984c-.4,0-.808.11-1.432.184,0,1.5-.073,2.973.037,4.441a1.513,1.513,0,0,0,1.1.991c4.625.55,4.772.4,4.7-4.221,0-.367-.037-.734-.074-1.395Zm-183.8.11c-.367.037-.991,1.028-.918,1.468.22,1.358-1.1,3.3.808,3.964,1.468.477,3.194.11,4.882.11-.037-2.019-.037-3.67-.037-5.616A39.855,39.855,0,0,0,18.834,71.094ZM153.667,41.218V35.675h-5.653v5.542ZM53.488,82.912v5.542h5.58V82.912Zm83.807-47.384c-1.064-.037-1.321.661-1.1,1.431.4,1.468-1.212,3.56.918,4.331,1.431.514,3.193.11,4.808.11V35.529C140.232,35.529,138.763,35.565,137.295,35.529Zm58.038,100.2h5.579v-5.542h-5.579ZM118.5,23.931v5.249h5.616V23.931ZM47.063,118.478H41.741v5.542h5.323ZM99.374,88.565a1.462,1.462,0,0,0,.991-.918c.111-1.542.037-3.12.037-4.7h-5.69V88.6C96.364,88.6,97.869,88.675,99.374,88.565Zm95.959,82.766h5.506v-5.616h-5.506ZM23.459,142.225H17.88v5.285h5.58ZM23.5,153.97h-5.58v5.322H23.5ZM77.9,5.983a1.366,1.366,0,0,0-.954.551c-.073,1.652-.037,3.3-.037,4.882H82.6V5.946C80.91,5.946,79.4,5.909,77.9,5.983ZM47.5,153.933v5.285h5.58v-5.285Zm159.8,11.341h5.286v-5.542H207.3ZM53.451,177.166c1.652,0,3.23.037,4.809-.036a1.15,1.15,0,0,0,.881-.845c.11-1.5.037-3.009.037-4.587H53.451Zm159.208-41.4v-5.542H207.3v5.542ZM41.337,124.314c-1.689,0-3.23-.037-4.809.036a1.1,1.1,0,0,0-.844.845c-.073,1.5-.037,3.009-.037,4.588,1.982.036,3.781.036,5.69.036ZM212.623,201.28h-5.286c-.147,6.9-1.212,5.616,4.955,5.616.074,0,.11-.073.331-.22ZM65.271,111.945h5.543v-5.322H65.271Zm-.477,42.025H59.4v5.285h5.4Zm29.955,5.285h5.506v-5.322H94.749ZM142.324,46.943h5.25V41.585h-5.25Zm65.049,47.31h5.25V88.9h-5.25ZM194.929,195.3h-5.36v5.5h5.36Z" transform="translate(0.145 0.22)" style="mix-blend-mode: normal;isolation: isolate"/>
    <path id="Vector-2" data-name="Vector" d="M41.7,41.548H.037V39.272c0-12.479.037-24.921-.037-37.4C0,.367.441,0,1.946,0c12.518.073,25.073.037,37.59.037.661,0,1.358.037,2.166.073ZM6.314,35.382H35.388V6.276H6.314Z" style="mix-blend-mode: normal;isolation: isolate"/>
    <path id="Vector-3" data-name="Vector" d="M41.518,41.438H0V0H41.518ZM6.13,6.24V35.272H35.241V6.24Z" transform="translate(0.184 177.497)" style="mix-blend-mode: normal;isolation: isolate"/>
    <path id="Vector-4" data-name="Vector" d="M0,0H41.445V41.438H0ZM6.057,7.965c0,8.478.037,16.994-.037,25.472,0,1.542.441,1.945,1.946,1.945,8.48-.073,17-.037,25.476-.037.587,0,1.175-.073,1.8-.11V6.093H6.057Z" transform="translate(177.526 0.183)" style="mix-blend-mode: normal;isolation: isolate"/>
    <path id="Vector-5" data-name="Vector" d="M12.114,5.909v5.762H0V5.652c3.414,0,6.755-.073,10.058.037,1.432.037,2.019-.33,1.835-1.835A33.59,33.59,0,0,1,11.857,0h5.984V5.652h5.8v6.056h-6.02v-5.8Z" transform="translate(130.281 71.204)" style="mix-blend-mode: normal;isolation: isolate"/>
    <path id="Vector-6" data-name="Vector" d="M11.82,0V6.019c-1.468,0-2.9.037-4.332,0-1.028-.037-1.432.33-1.395,1.358.037,1.468,0,2.9,0,4.551H0C.037,8,.037,4.111.037,0Z" transform="translate(147.939 11.892)" style="mix-blend-mode: normal;isolation: isolate"/>
    <path id="Vector-7" data-name="Vector" d="M0,11.745V0H5.91V11.745Z" transform="translate(165.779 17.874)" style="mix-blend-mode: normal;isolation: isolate"/>
    <path id="Vector-8" data-name="Vector" d="M0,6.019V0H5.947V6.019Z" transform="translate(35.681 47.42)" style="mix-blend-mode: normal;isolation: isolate"/>
    <path id="Vector-9" data-name="Vector" d="M0,0H5.947V5.909H0Z" transform="translate(130.208 165.788)" style="mix-blend-mode: normal;isolation: isolate"/>
    <path id="Vector-10" data-name="Vector" d="M5.727,0V5.946H0V0Z" transform="translate(153.996 0.11)" style="mix-blend-mode: normal;isolation: isolate"/>
    <path id="Vector-11" data-name="Vector" d="M0,5.983V0H5.873V5.983Z" transform="translate(177.563 82.913)" style="mix-blend-mode: normal;isolation: isolate"/>
    <path id="Vector-12" data-name="Vector" d="M6.057,5.762H0V0H5.91l.147.147Z" transform="translate(112.477 142.188)" style="mix-blend-mode: normal;isolation: isolate"/>
    <path id="Vector-13" data-name="Vector" d="M5.873,0V5.946H0V0Z" transform="translate(165.816 212.989)" style="mix-blend-mode: normal;isolation: isolate"/>
    <path id="Vector-14" data-name="Vector" d="M0,0H5.837c0,1.762.073,3.45-.037,5.138a1.39,1.39,0,0,1-.991.918c-1.542.073-3.12.037-4.809.037Z" transform="translate(71.179 201.244)" style="mix-blend-mode: normal;isolation: isolate"/>
    <path id="Vector-15" data-name="Vector" d="M5.727,0V5.909H0V0Z" transform="translate(71.143 76.93)" style="mix-blend-mode: normal;isolation: isolate"/>
    <path id="Vector-16" data-name="Vector" d="M0,0H5.984V5.946H0Z" transform="translate(100.694 118.478)" style="mix-blend-mode: normal;isolation: isolate"/>
    <path id="Vector-17" data-name="Vector" d="M0,5.983V0H5.91V5.983Z" transform="translate(177.563 177.534)" style="mix-blend-mode: normal;isolation: isolate"/>
    <path id="Vector-18" data-name="Vector" d="M0,17.691V0H17.694V17.691Z" transform="translate(11.967 11.928)" style="mix-blend-mode: normal;isolation: isolate"/>
    <path id="Vector-19" data-name="Vector" d="M0,0H17.657V17.728H0Z" transform="translate(11.931 189.499)" style="mix-blend-mode: normal;isolation: isolate"/>
    <path id="Vector-20" data-name="Vector" d="M17.731,17.654H0V0H17.731Z" transform="translate(189.53 11.928)" style="mix-blend-mode: normal;isolation: isolate"/>
  </g>
</svg>
